<svg xmlns="http://www.w3.org/2000/svg" viewBox="0 0 24 24" width="24" height="24" fill="currentColor"><path d="M23.925 7.05c-.05-1.275-.25-2.15-.55-2.925-.3-.8-.725-1.45-1.375-2.125A5.65 5.65 0 0 0 19.875.625c-.775-.3-1.625-.5-2.925-.55C15.675 0 15.25 0 12 0S8.325.025 7.05.075s-2.15.25-2.925.55C3.325.925 2.675 1.35 2 2A5.65 5.65 0 0 0 .625 4.125c-.3.775-.5 1.625-.55 2.925C0 8.325 0 8.75 0 12s.025 3.675.075 4.95.25 2.15.55 2.925c.3.8.725 1.45 1.375 2.125a5.65 5.65 0 0 0 2.125 1.375c.775.3 1.625.5 2.925.55C8.325 24 8.75 24 12 24s3.675-.025 4.95-.075 2.15-.25 2.925-.55c.8-.3 1.45-.725 2.125-1.375a5.65 5.65 0 0 0 1.375-2.125c.3-.775.5-1.625.55-2.925C24 15.675 24 15.25 24 12s-.025-3.675-.075-4.95M12 18.15c-3.4 0-6.15-2.75-6.15-6.15S8.6 5.85 12 5.85 18.15 8.6 18.15 12 15.4 18.15 12 18.15m6.4-11.2c-.75 0-1.35-.6-1.35-1.35s.6-1.35 1.35-1.35 1.35.6 1.35 1.35-.6 1.35-1.35 1.35"/><path d="M16 12a4 4 0 0 1-4 4 4 4 0 0 1-4-4 4 4 0 0 1 8 0"/></svg>
