<svg xmlns="http://www.w3.org/2000/svg" width="24" height="24" viewBox="0 0 24 24" fill="currentColor" aria-hidden="true"><path d="M21.347 5.558c-2.4-.505-4.294-2.653-4.547-5.053V0h-4.042v16.421c0 1.895-1.516 3.411-3.537 3.411-1.137 0-2.147-.505-2.779-1.389-1.137-1.516-.884-3.663.632-4.926.884-.632 2.021-.884 3.158-.505v-4.17c-4.168-.632-7.958 2.274-8.589 6.442-.379 2.274.505 4.674 2.147 6.316 2.905 3.032 7.705 3.032 10.737.126 1.516-1.389 2.274-3.411 2.274-5.432V7.958c1.642 1.137 3.663 1.895 5.684 1.895V5.684c-.253 0-.758 0-1.137-.126"/></svg>
