<svg width="24" height="24" viewBox="0 0 24 24" fill="none" xmlns="http://www.w3.org/2000/svg" aria-hidden="true"><path d="M8.647 6.444c0-.884.353-1.731.982-2.357a3.363 3.363 0 0 1 4.742 0 3.323 3.323 0 0 1 0 4.714 3.363 3.363 0 0 1-4.742 0 3.32 3.32 0 0 1-.982-2.357M12 2a4.48 4.48 0 0 0-3.161 1.302 4.43 4.43 0 0 0-1.31 3.142c0 1.18.471 2.31 1.31 3.143A4.48 4.48 0 0 0 12 10.89a4.48 4.48 0 0 0 3.161-1.302 4.43 4.43 0 0 0 1.31-3.143 4.43 4.43 0 0 0-1.31-3.142A4.48 4.48 0 0 0 12 2m6.236 13.5c1.252.911 2.046 2.489 2.135 5.389H3.63c.09-2.889.883-4.478 2.123-5.389 1.397-1 3.454-1.278 6.248-1.278s4.862.29 6.236 1.278M12 13.111c-2.794 0-5.197.267-6.896 1.5C3.361 15.867 2.5 18.033 2.5 21.444V22h19v-.556c0-3.41-.86-5.577-2.604-6.833-1.699-1.222-4.102-1.5-6.896-1.5" fill="currentColor"/></svg>
